<?xml version="1.0" encoding="UTF-8"?>
<svg xmlns="http://www.w3.org/2000/svg" xmlns:xlink="http://www.w3.org/1999/xlink" width="74px" height="40px" viewBox="0 0 73 40" version="1.1">
<g id="surface1">
<path style=" stroke:none;fill-rule:nonzero;fill:rgb(15.294118%,20.392157%,54.509804%);fill-opacity:1;" d="M 63.820312 10.332031 C 63.859375 10.332031 63.859375 10.332031 63.898438 10.332031 C 63.957031 10.332031 64.011719 10.332031 64.070312 10.332031 C 64.152344 10.332031 64.238281 10.332031 64.324219 10.332031 C 66.53125 10.320312 68.625 11.253906 70.464844 13.003906 C 70.578125 13.117188 70.683594 13.234375 70.785156 13.355469 C 70.8125 13.386719 70.8125 13.386719 70.835938 13.414062 C 71.347656 14.007812 71.753906 14.671875 72.101562 15.375 C 72.109375 15.390625 72.121094 15.410156 72.128906 15.425781 C 73.089844 17.347656 73.230469 19.671875 72.550781 22.445312 C 72.285156 23.242188 71.925781 24.027344 71.445312 24.714844 C 71.425781 24.738281 71.410156 24.761719 71.394531 24.789062 C 71 25.355469 70.542969 25.90625 70.019531 26.355469 C 69.996094 26.375 69.976562 26.394531 69.953125 26.414062 C 68.371094 27.820312 66.300781 28.554688 64.207031 28.558594 C 64.1875 28.558594 64.171875 28.558594 64.152344 28.558594 C 62.941406 28.554688 61.738281 28.316406 60.625 27.832031 C 60.597656 27.820312 60.574219 27.808594 60.546875 27.796875 C 60.324219 27.699219 60.113281 27.582031 59.894531 27.464844 C 59.894531 26.375 59.894531 25.285156 59.894531 24.160156 C 59.953125 24.1875 60.003906 24.214844 60.054688 24.253906 C 60.988281 24.878906 62.003906 25.265625 63.117188 25.402344 C 63.136719 25.40625 63.15625 25.40625 63.175781 25.410156 C 63.746094 25.480469 64.363281 25.484375 64.933594 25.402344 C 64.957031 25.398438 64.976562 25.398438 64.996094 25.394531 C 66.097656 25.242188 67.191406 24.765625 67.992188 23.972656 C 68.027344 23.9375 68.0625 23.902344 68.097656 23.867188 C 68.253906 23.714844 68.394531 23.554688 68.523438 23.378906 C 68.542969 23.351562 68.558594 23.328125 68.578125 23.300781 C 69.136719 22.5625 69.457031 21.664062 69.621094 20.757812 C 69.625 20.734375 69.628906 20.710938 69.632812 20.683594 C 69.703125 20.277344 69.722656 19.871094 69.71875 19.453125 C 69.71875 19.429688 69.71875 19.40625 69.71875 19.378906 C 69.71875 19.007812 69.707031 18.648438 69.648438 18.28125 C 69.640625 18.246094 69.640625 18.246094 69.636719 18.210938 C 69.453125 17.089844 69.007812 16.03125 68.265625 15.175781 C 68.238281 15.144531 68.238281 15.144531 68.210938 15.113281 C 68.046875 14.921875 67.871094 14.757812 67.675781 14.597656 C 67.652344 14.582031 67.632812 14.5625 67.609375 14.542969 C 66.414062 13.582031 64.867188 13.308594 63.378906 13.464844 C 62.230469 13.605469 61.167969 14.097656 60.332031 14.910156 C 60.320312 14.917969 60.308594 14.929688 60.296875 14.941406 C 60.128906 15.105469 59.976562 15.277344 59.835938 15.46875 C 59.808594 15.503906 59.78125 15.542969 59.753906 15.578125 C 58.867188 16.773438 58.636719 18.261719 58.640625 19.714844 C 58.640625 19.820312 58.640625 19.929688 58.640625 20.035156 C 58.640625 20.226562 58.636719 20.414062 58.636719 20.601562 C 58.636719 20.878906 58.636719 21.160156 58.636719 21.4375 C 58.636719 21.910156 58.636719 22.378906 58.636719 22.851562 C 58.636719 23.316406 58.636719 23.78125 58.636719 24.246094 C 58.636719 24.273438 58.636719 24.304688 58.636719 24.332031 C 58.636719 24.480469 58.636719 24.628906 58.636719 24.773438 C 58.636719 25.074219 58.632812 25.375 58.632812 25.671875 C 58.632812 25.6875 58.632812 25.703125 58.632812 25.71875 C 58.632812 26.445312 58.632812 27.171875 58.632812 27.898438 C 58.632812 28.152344 58.632812 28.402344 58.632812 28.65625 C 58.632812 28.671875 58.632812 28.6875 58.632812 28.703125 C 58.632812 29.429688 58.632812 30.160156 58.628906 30.886719 C 58.628906 30.933594 58.628906 30.980469 58.628906 31.027344 C 58.628906 31.339844 58.628906 31.652344 58.628906 31.96875 C 58.628906 32.589844 58.628906 33.214844 58.628906 33.835938 C 58.628906 33.867188 58.628906 33.898438 58.628906 33.925781 C 58.625 35.457031 58.625 36.992188 58.625 38.523438 C 58.625 38.542969 58.625 38.566406 58.625 38.585938 C 58.625 39.007812 58.625 39.425781 58.625 39.84375 C 57.546875 39.84375 56.46875 39.84375 55.359375 39.84375 C 55.359375 38.898438 55.359375 38.898438 55.359375 38.53125 C 55.359375 38.507812 55.359375 38.484375 55.359375 38.460938 C 55.355469 36.949219 55.355469 35.433594 55.355469 33.917969 C 55.355469 33.890625 55.355469 33.859375 55.355469 33.832031 C 55.355469 33.210938 55.355469 32.589844 55.355469 31.96875 C 55.355469 31.65625 55.355469 31.347656 55.355469 31.035156 C 55.355469 30.988281 55.355469 30.941406 55.355469 30.894531 C 55.355469 30.171875 55.355469 29.449219 55.355469 28.722656 C 55.355469 28.707031 55.355469 28.691406 55.355469 28.675781 C 55.355469 28.425781 55.355469 28.175781 55.355469 27.925781 C 55.355469 27.203125 55.355469 26.480469 55.355469 25.761719 C 55.355469 25.746094 55.355469 25.730469 55.355469 25.714844 C 55.355469 25.402344 55.355469 25.089844 55.355469 24.78125 C 55.355469 24.632812 55.355469 24.488281 55.355469 24.339844 C 55.355469 24.3125 55.355469 24.285156 55.355469 24.253906 C 55.355469 23.792969 55.355469 23.332031 55.351562 22.867188 C 55.351562 22.402344 55.351562 21.9375 55.351562 21.472656 C 55.351562 21.199219 55.351562 20.921875 55.351562 20.648438 C 55.351562 20.460938 55.351562 20.277344 55.351562 20.09375 C 55.351562 19.988281 55.351562 19.882812 55.351562 19.777344 C 55.351562 19.214844 55.359375 18.652344 55.441406 18.09375 C 55.445312 18.054688 55.445312 18.054688 55.453125 18.015625 C 55.742188 16.046875 56.640625 14.257812 58.023438 12.851562 C 58.054688 12.820312 58.082031 12.789062 58.113281 12.757812 C 58.25 12.621094 58.386719 12.5 58.535156 12.378906 C 58.5625 12.355469 58.59375 12.332031 58.621094 12.308594 C 58.976562 12.007812 59.359375 11.746094 59.761719 11.515625 C 59.78125 11.503906 59.800781 11.492188 59.820312 11.480469 C 61.027344 10.785156 62.421875 10.339844 63.820312 10.332031 Z M 63.820312 10.332031 "/>
<path style=" stroke:none;fill-rule:nonzero;fill:rgb(15.294118%,20.392157%,54.509804%);fill-opacity:1;" d="M 7.136719 2.683594 C 7.222656 2.683594 7.308594 2.683594 7.394531 2.683594 C 7.546875 2.683594 7.695312 2.683594 7.847656 2.683594 C 8.066406 2.683594 8.28125 2.683594 8.5 2.683594 C 8.855469 2.683594 9.207031 2.683594 9.558594 2.683594 C 9.902344 2.683594 10.246094 2.683594 10.589844 2.683594 C 10.621094 2.683594 10.621094 2.683594 10.652344 2.683594 C 10.820312 2.683594 10.988281 2.683594 11.15625 2.683594 C 11.972656 2.683594 12.792969 2.683594 13.609375 2.683594 C 13.609375 3.746094 13.609375 4.808594 13.609375 5.902344 C 13.140625 5.902344 12.675781 5.902344 12.195312 5.90625 C 11.898438 5.90625 11.601562 5.90625 11.304688 5.90625 C 11.148438 5.90625 10.992188 5.90625 10.835938 5.910156 C 10.816406 5.910156 10.796875 5.910156 10.777344 5.910156 C 10.464844 5.910156 10.148438 5.910156 9.835938 5.910156 C 9.511719 5.910156 9.1875 5.914062 8.867188 5.914062 C 8.667969 5.914062 8.46875 5.914062 8.269531 5.914062 C 8.132812 5.914062 7.996094 5.914062 7.859375 5.914062 C 7.777344 5.917969 7.699219 5.917969 7.621094 5.917969 C 6.488281 5.917969 5.191406 5.972656 4.332031 6.828125 C 3.78125 7.402344 3.625 8.175781 3.628906 8.949219 C 3.640625 9.679688 3.921875 10.296875 4.382812 10.847656 C 4.394531 10.863281 4.410156 10.882812 4.421875 10.898438 C 4.496094 10.984375 4.574219 11.0625 4.660156 11.136719 C 4.695312 11.167969 4.730469 11.199219 4.765625 11.230469 C 5.273438 11.691406 5.910156 12.035156 6.507812 12.355469 C 6.527344 12.367188 6.546875 12.378906 6.566406 12.390625 C 7.460938 12.875 8.398438 13.265625 9.347656 13.628906 C 10.742188 14.164062 12.082031 14.789062 13.191406 15.820312 C 13.234375 15.859375 13.277344 15.898438 13.320312 15.933594 C 14.386719 16.882812 14.851562 18.292969 15.015625 19.679688 C 15.019531 19.695312 15.019531 19.710938 15.023438 19.726562 C 15.070312 20.105469 15.082031 20.484375 15.082031 20.867188 C 15.082031 20.898438 15.082031 20.898438 15.082031 20.933594 C 15.082031 22.78125 14.441406 24.511719 13.144531 25.832031 C 13.007812 25.972656 12.867188 26.105469 12.710938 26.222656 C 12.695312 26.234375 12.683594 26.246094 12.667969 26.257812 C 12.402344 26.464844 12.125 26.648438 11.835938 26.820312 C 11.804688 26.839844 11.804688 26.839844 11.773438 26.859375 C 10.527344 27.601562 9.140625 28.058594 7.691406 28.152344 C 7.648438 28.15625 7.648438 28.15625 7.605469 28.160156 C 7.28125 28.179688 6.957031 28.179688 6.628906 28.179688 C 6.546875 28.179688 6.460938 28.179688 6.378906 28.179688 C 6.234375 28.179688 6.09375 28.179688 5.949219 28.175781 C 5.742188 28.175781 5.535156 28.175781 5.328125 28.175781 C 4.992188 28.175781 4.65625 28.175781 4.316406 28.175781 C 3.992188 28.175781 3.664062 28.175781 3.339844 28.175781 C 3.320312 28.175781 3.296875 28.175781 3.277344 28.175781 C 3.117188 28.175781 2.957031 28.175781 2.796875 28.175781 C 2.019531 28.175781 1.238281 28.175781 0.460938 28.175781 C 0.460938 27.113281 0.460938 26.050781 0.460938 24.957031 C 0.886719 24.957031 1.316406 24.957031 1.757812 24.957031 C 2.03125 24.953125 2.300781 24.953125 2.574219 24.953125 C 2.71875 24.953125 2.859375 24.953125 3.003906 24.953125 C 3.023438 24.953125 3.039062 24.953125 3.058594 24.953125 C 3.347656 24.949219 3.632812 24.949219 3.921875 24.949219 C 4.21875 24.949219 4.515625 24.949219 4.8125 24.945312 C 4.996094 24.945312 5.175781 24.945312 5.359375 24.945312 C 5.484375 24.945312 5.609375 24.945312 5.734375 24.945312 C 5.808594 24.945312 5.878906 24.941406 5.953125 24.941406 C 6.425781 24.941406 6.894531 24.921875 7.363281 24.851562 C 7.386719 24.847656 7.414062 24.84375 7.4375 24.839844 C 8.652344 24.652344 10.027344 24.171875 10.792969 23.136719 C 11.242188 22.507812 11.449219 21.804688 11.484375 21.03125 C 11.484375 21.011719 11.484375 20.988281 11.488281 20.96875 C 11.503906 20.058594 11.203125 19.203125 10.578125 18.542969 C 10.558594 18.523438 10.539062 18.5 10.519531 18.480469 C 10.5 18.460938 10.484375 18.441406 10.464844 18.417969 C 10.191406 18.132812 9.867188 17.910156 9.53125 17.703125 C 9.519531 17.695312 9.507812 17.6875 9.492188 17.679688 C 9.410156 17.628906 9.332031 17.578125 9.25 17.53125 C 9.21875 17.511719 9.1875 17.492188 9.15625 17.476562 C 8.222656 16.914062 7.207031 16.503906 6.1875 16.132812 C 5.257812 15.796875 4.355469 15.40625 3.507812 14.886719 C 3.476562 14.867188 3.476562 14.867188 3.449219 14.851562 C 3.203125 14.699219 2.96875 14.535156 2.738281 14.355469 C 2.710938 14.332031 2.683594 14.3125 2.65625 14.289062 C 2.523438 14.183594 2.390625 14.078125 2.269531 13.960938 C 2.222656 13.917969 2.175781 13.878906 2.132812 13.839844 C 2.035156 13.753906 1.945312 13.664062 1.851562 13.570312 C 1.835938 13.554688 1.820312 13.539062 1.804688 13.523438 C 1.699219 13.414062 1.601562 13.308594 1.511719 13.191406 C 1.480469 13.152344 1.449219 13.113281 1.417969 13.074219 C 1.152344 12.765625 0.933594 12.410156 0.746094 12.046875 C 0.738281 12.03125 0.730469 12.019531 0.722656 12.003906 C 0.261719 11.113281 0 10.105469 -0.00390625 9.097656 C -0.00390625 9.074219 -0.00390625 9.050781 -0.00390625 9.023438 C -0.0117188 7.359375 0.304688 5.796875 1.492188 4.570312 C 1.886719 4.167969 2.355469 3.859375 2.847656 3.59375 C 2.871094 3.582031 2.871094 3.582031 2.890625 3.570312 C 3.867188 3.039062 4.992188 2.785156 6.09375 2.707031 C 6.117188 2.703125 6.140625 2.703125 6.164062 2.699219 C 6.488281 2.679688 6.8125 2.679688 7.136719 2.683594 Z M 7.136719 2.683594 "/>
<path style=" stroke:none;fill-rule:nonzero;fill:rgb(15.294118%,20.392157%,54.509804%);fill-opacity:1;" d="M 18.648438 2.683594 C 19.699219 2.683594 20.746094 2.683594 21.828125 2.683594 C 21.828125 5.328125 21.828125 7.96875 21.828125 10.691406 C 23.101562 10.691406 24.375 10.691406 25.683594 10.691406 C 26.664062 10.746094 26.664062 10.746094 26.964844 10.777344 C 26.980469 10.78125 27 10.78125 27.019531 10.785156 C 28.589844 10.949219 30.117188 11.339844 31.308594 12.445312 C 31.355469 12.484375 31.402344 12.523438 31.445312 12.5625 C 32.644531 13.625 32.84375 15.324219 32.953125 16.835938 C 32.976562 17.214844 32.984375 17.589844 32.984375 17.96875 C 32.984375 18.015625 32.984375 18.058594 32.984375 18.105469 C 32.984375 18.222656 32.984375 18.34375 32.984375 18.464844 C 32.984375 18.597656 32.984375 18.726562 32.984375 18.855469 C 32.984375 19.082031 32.984375 19.308594 32.984375 19.535156 C 32.984375 19.769531 32.984375 20.007812 32.984375 20.242188 C 32.984375 20.257812 32.984375 20.273438 32.984375 20.289062 C 32.984375 20.363281 32.984375 20.4375 32.984375 20.511719 C 32.984375 21.042969 32.984375 21.574219 32.984375 22.101562 C 32.984375 22.617188 32.984375 23.128906 32.984375 23.644531 C 32.984375 23.667969 32.984375 23.667969 32.984375 23.691406 C 32.984375 23.851562 32.984375 24.011719 32.984375 24.171875 C 32.984375 24.496094 32.984375 24.820312 32.984375 25.144531 C 32.984375 25.160156 32.984375 25.175781 32.984375 25.191406 C 32.984375 26.183594 32.984375 27.179688 32.984375 28.175781 C 31.933594 28.175781 30.886719 28.175781 29.804688 28.175781 C 29.804688 27.867188 29.804688 27.5625 29.804688 27.246094 C 29.800781 26.261719 29.800781 25.277344 29.796875 24.292969 C 29.796875 24.140625 29.796875 23.988281 29.796875 23.835938 C 29.796875 23.820312 29.796875 23.804688 29.796875 23.789062 C 29.796875 23.296875 29.792969 22.804688 29.792969 22.3125 C 29.792969 21.792969 29.792969 21.273438 29.789062 20.75 C 29.789062 20.441406 29.789062 20.128906 29.789062 19.816406 C 29.789062 19.601562 29.789062 19.390625 29.789062 19.175781 C 29.789062 19.050781 29.789062 18.929688 29.789062 18.804688 C 29.789062 17.015625 29.789062 17.015625 29.191406 15.351562 C 29.179688 15.332031 29.167969 15.308594 29.152344 15.285156 C 28.71875 14.5625 27.945312 14.125 27.152344 13.921875 C 25.460938 13.511719 23.214844 13.785156 21.828125 13.777344 C 21.828125 18.527344 21.828125 23.28125 21.828125 28.175781 C 20.777344 28.175781 19.730469 28.175781 18.648438 28.175781 C 18.648438 19.761719 18.648438 11.351562 18.648438 2.683594 Z M 18.648438 2.683594 "/>
<path style=" stroke:none;fill-rule:nonzero;fill:rgb(15.294118%,20.392157%,54.509804%);fill-opacity:1;" d="M 38.242188 10.691406 C 39.855469 10.691406 39.855469 10.691406 40.53125 10.691406 C 40.6875 10.691406 40.84375 10.691406 40.996094 10.691406 C 41.015625 10.691406 41.035156 10.691406 41.054688 10.691406 C 41.367188 10.691406 41.679688 10.691406 41.992188 10.691406 C 42.3125 10.6875 42.636719 10.6875 42.957031 10.6875 C 43.152344 10.6875 43.351562 10.6875 43.550781 10.6875 C 43.683594 10.6875 43.820312 10.6875 43.957031 10.6875 C 44.035156 10.6875 44.113281 10.6875 44.191406 10.6875 C 44.710938 10.6875 45.230469 10.707031 45.75 10.777344 C 45.777344 10.78125 45.804688 10.785156 45.832031 10.789062 C 46.617188 10.898438 47.386719 11.105469 48.105469 11.449219 C 48.117188 11.453125 48.132812 11.460938 48.148438 11.46875 C 48.949219 11.855469 49.71875 12.4375 50.230469 13.179688 C 50.246094 13.199219 50.246094 13.199219 50.261719 13.222656 C 50.902344 14.15625 51.246094 15.199219 51.375 16.324219 C 51.375 16.339844 51.378906 16.355469 51.378906 16.371094 C 51.429688 16.789062 51.4375 17.203125 51.4375 17.621094 C 51.4375 17.667969 51.4375 17.710938 51.4375 17.757812 C 51.4375 17.882812 51.4375 18.007812 51.4375 18.132812 C 51.4375 18.269531 51.4375 18.402344 51.4375 18.539062 C 51.4375 18.769531 51.4375 19.003906 51.4375 19.238281 C 51.4375 19.484375 51.4375 19.726562 51.4375 19.972656 C 51.4375 19.988281 51.4375 20.003906 51.4375 20.019531 C 51.4375 20.09375 51.4375 20.171875 51.4375 20.25 C 51.4375 20.796875 51.4375 21.347656 51.4375 21.894531 C 51.4375 22.425781 51.4375 22.957031 51.4375 23.488281 C 51.4375 23.511719 51.4375 23.511719 51.4375 23.539062 C 51.4375 23.703125 51.4375 23.867188 51.4375 24.03125 C 51.4375 24.367188 51.4375 24.703125 51.4375 25.039062 C 51.4375 25.054688 51.4375 25.070312 51.4375 25.085938 C 51.4375 26.117188 51.4375 27.144531 51.433594 28.175781 C 50.328125 28.175781 49.222656 28.179688 48.113281 28.179688 C 47.984375 28.179688 47.851562 28.179688 47.71875 28.179688 C 47.695312 28.179688 47.667969 28.179688 47.640625 28.179688 C 47.21875 28.179688 46.800781 28.179688 46.378906 28.179688 C 45.945312 28.179688 45.511719 28.179688 45.078125 28.179688 C 44.8125 28.179688 44.546875 28.183594 44.28125 28.183594 C 44.097656 28.183594 43.914062 28.183594 43.730469 28.183594 C 43.625 28.183594 43.519531 28.183594 43.414062 28.183594 C 41.75 28.1875 40.007812 27.914062 38.636719 26.886719 C 38.625 26.878906 38.613281 26.871094 38.597656 26.859375 C 38.421875 26.730469 38.257812 26.585938 38.097656 26.429688 C 38.070312 26.402344 38.042969 26.378906 38.015625 26.351562 C 37.089844 25.453125 36.757812 24.128906 36.726562 22.875 C 36.707031 21.582031 37.035156 20.320312 37.910156 19.351562 C 37.949219 19.308594 37.988281 19.265625 38.023438 19.21875 C 38.097656 19.132812 38.179688 19.0625 38.265625 18.992188 C 38.28125 18.976562 38.296875 18.960938 38.316406 18.945312 C 38.640625 18.65625 39.019531 18.414062 39.402344 18.214844 C 39.421875 18.203125 39.441406 18.195312 39.464844 18.183594 C 40.238281 17.785156 41.054688 17.542969 41.914062 17.410156 C 41.933594 17.40625 41.957031 17.40625 41.980469 17.402344 C 42.421875 17.335938 42.863281 17.320312 43.308594 17.320312 C 43.394531 17.320312 43.480469 17.320312 43.5625 17.320312 C 44.089844 17.316406 44.605469 17.363281 45.121094 17.453125 C 45.136719 17.457031 45.15625 17.460938 45.171875 17.460938 C 46.730469 17.734375 46.730469 17.734375 46.898438 17.902344 C 46.902344 17.945312 46.902344 17.988281 46.902344 18.03125 C 46.902344 18.074219 46.902344 18.074219 46.902344 18.113281 C 46.902344 18.144531 46.902344 18.175781 46.902344 18.207031 C 46.902344 18.238281 46.902344 18.273438 46.902344 18.304688 C 46.902344 18.390625 46.902344 18.480469 46.902344 18.570312 C 46.902344 18.660156 46.902344 18.753906 46.902344 18.84375 C 46.902344 19.019531 46.902344 19.191406 46.902344 19.367188 C 46.898438 19.566406 46.898438 19.765625 46.898438 19.960938 C 46.898438 20.371094 46.898438 20.777344 46.898438 21.1875 C 46.804688 21.152344 46.726562 21.101562 46.644531 21.042969 C 46.023438 20.617188 45.316406 20.351562 44.574219 20.234375 C 44.546875 20.226562 44.546875 20.226562 44.515625 20.222656 C 43.902344 20.128906 43.238281 20.117188 42.625 20.210938 C 42.597656 20.214844 42.597656 20.214844 42.566406 20.21875 C 42.136719 20.285156 41.722656 20.394531 41.332031 20.589844 C 41.308594 20.601562 41.28125 20.613281 41.257812 20.625 C 41.085938 20.714844 40.933594 20.820312 40.785156 20.941406 C 40.765625 20.957031 40.746094 20.972656 40.726562 20.988281 C 40.300781 21.359375 40.070312 21.890625 40.015625 22.453125 C 39.980469 23.03125 40.066406 23.652344 40.453125 24.105469 C 40.46875 24.125 40.484375 24.140625 40.5 24.160156 C 40.523438 24.1875 40.523438 24.1875 40.546875 24.214844 C 41.222656 24.945312 42.351562 25.058594 43.28125 25.089844 C 43.449219 25.09375 43.617188 25.09375 43.789062 25.097656 C 43.835938 25.097656 43.886719 25.097656 43.933594 25.097656 C 44.066406 25.097656 44.195312 25.097656 44.328125 25.097656 C 44.464844 25.097656 44.601562 25.097656 44.742188 25.101562 C 44.972656 25.101562 45.203125 25.101562 45.433594 25.101562 C 45.667969 25.105469 45.90625 25.105469 46.144531 25.105469 C 46.160156 25.105469 46.171875 25.105469 46.1875 25.105469 C 46.261719 25.105469 46.335938 25.105469 46.410156 25.105469 C 47.019531 25.109375 47.625 25.113281 48.234375 25.113281 C 48.234375 24.167969 48.234375 23.222656 48.230469 22.277344 C 48.230469 22.167969 48.230469 22.054688 48.230469 21.941406 C 48.230469 21.910156 48.230469 21.910156 48.230469 21.875 C 48.230469 21.515625 48.226562 21.15625 48.226562 20.796875 C 48.226562 20.425781 48.226562 20.058594 48.226562 19.6875 C 48.226562 19.460938 48.226562 19.234375 48.226562 19.007812 C 48.222656 18.851562 48.222656 18.691406 48.222656 18.535156 C 48.222656 18.445312 48.222656 18.355469 48.222656 18.265625 C 48.222656 17.667969 48.183594 17.089844 48.039062 16.503906 C 48.035156 16.488281 48.03125 16.472656 48.027344 16.457031 C 47.816406 15.601562 47.308594 14.847656 46.5625 14.382812 C 46.136719 14.128906 45.664062 13.980469 45.179688 13.882812 C 45.164062 13.878906 45.148438 13.875 45.128906 13.875 C 44.734375 13.796875 44.332031 13.792969 43.929688 13.792969 C 43.851562 13.792969 43.777344 13.792969 43.699219 13.792969 C 43.566406 13.789062 43.433594 13.789062 43.304688 13.789062 C 43.113281 13.789062 42.921875 13.789062 42.730469 13.789062 C 42.417969 13.789062 42.109375 13.785156 41.800781 13.785156 C 41.5 13.785156 41.195312 13.785156 40.894531 13.785156 C 40.878906 13.785156 40.859375 13.785156 40.839844 13.785156 C 40.691406 13.785156 40.546875 13.78125 40.398438 13.78125 C 39.679688 13.78125 38.960938 13.777344 38.242188 13.777344 C 38.242188 12.757812 38.242188 11.742188 38.242188 10.691406 Z M 38.242188 10.691406 "/>
<path style=" stroke:none;fill-rule:nonzero;fill:rgb(15.294118%,20.392157%,54.509804%);fill-opacity:1;" d="M 44.796875 0.199219 C 44.835938 0.234375 44.878906 0.273438 44.917969 0.308594 C 44.933594 0.324219 44.933594 0.324219 44.953125 0.34375 C 45.078125 0.460938 45.199219 0.582031 45.320312 0.707031 C 45.347656 0.730469 45.371094 0.757812 45.398438 0.785156 C 45.464844 0.851562 45.535156 0.921875 45.601562 0.992188 C 45.679688 1.066406 45.753906 1.144531 45.828125 1.21875 C 46.007812 1.398438 46.1875 1.582031 46.367188 1.761719 C 46.449219 1.847656 46.535156 1.933594 46.621094 2.019531 C 46.902344 2.304688 47.183594 2.589844 47.464844 2.875 C 47.539062 2.945312 47.609375 3.019531 47.683594 3.09375 C 47.699219 3.113281 47.71875 3.132812 47.738281 3.148438 C 48.03125 3.445312 48.324219 3.742188 48.621094 4.039062 C 48.921875 4.347656 49.222656 4.652344 49.527344 4.957031 C 49.695312 5.128906 49.863281 5.300781 50.035156 5.472656 C 50.179688 5.617188 50.324219 5.761719 50.464844 5.910156 C 50.539062 5.984375 50.613281 6.058594 50.6875 6.132812 C 50.753906 6.199219 50.820312 6.265625 50.890625 6.335938 C 50.914062 6.359375 50.9375 6.386719 50.960938 6.410156 C 51.242188 6.691406 51.429688 7.007812 51.441406 7.417969 C 51.429688 7.730469 51.335938 8.003906 51.152344 8.253906 C 51.140625 8.265625 51.128906 8.28125 51.121094 8.292969 C 50.945312 8.523438 50.660156 8.667969 50.382812 8.71875 C 50.3125 8.726562 50.238281 8.726562 50.167969 8.726562 C 50.136719 8.726562 50.136719 8.726562 50.101562 8.726562 C 50.035156 8.726562 49.964844 8.726562 49.894531 8.726562 C 49.847656 8.726562 49.800781 8.726562 49.75 8.726562 C 49.648438 8.726562 49.550781 8.726562 49.449219 8.726562 C 49.320312 8.726562 49.191406 8.726562 49.0625 8.726562 C 48.960938 8.726562 48.863281 8.726562 48.761719 8.726562 C 48.714844 8.726562 48.667969 8.726562 48.621094 8.726562 C 48.191406 8.730469 47.835938 8.6875 47.507812 8.375 C 47.496094 8.363281 47.484375 8.351562 47.472656 8.339844 C 47.34375 8.21875 47.222656 8.09375 47.101562 7.96875 C 47.078125 7.945312 47.050781 7.921875 47.027344 7.894531 C 46.976562 7.84375 46.925781 7.789062 46.871094 7.738281 C 46.792969 7.65625 46.710938 7.570312 46.628906 7.488281 C 46.597656 7.460938 46.570312 7.429688 46.542969 7.402344 C 46.527344 7.386719 46.515625 7.375 46.5 7.359375 C 46.308594 7.164062 46.117188 6.972656 45.929688 6.777344 C 45.800781 6.644531 45.671875 6.515625 45.542969 6.382812 C 45.472656 6.316406 45.40625 6.246094 45.335938 6.175781 C 45.273438 6.109375 45.210938 6.046875 45.144531 5.980469 C 45.121094 5.957031 45.097656 5.933594 45.078125 5.910156 C 44.796875 5.625 44.488281 5.441406 44.085938 5.429688 C 43.773438 5.433594 43.496094 5.53125 43.269531 5.746094 C 43.257812 5.757812 43.246094 5.765625 43.234375 5.777344 C 43.113281 5.894531 42.992188 6.015625 42.875 6.136719 C 42.847656 6.160156 42.824219 6.1875 42.800781 6.210938 C 42.75 6.261719 42.699219 6.316406 42.644531 6.367188 C 42.5625 6.453125 42.480469 6.535156 42.398438 6.617188 C 42.167969 6.855469 41.933594 7.09375 41.699219 7.328125 C 41.570312 7.460938 41.441406 7.59375 41.3125 7.722656 C 41.230469 7.804688 41.148438 7.886719 41.070312 7.972656 C 41.019531 8.023438 40.96875 8.074219 40.917969 8.125 C 40.894531 8.148438 40.871094 8.171875 40.847656 8.199219 C 40.679688 8.367188 40.507812 8.527344 40.289062 8.625 C 40.273438 8.632812 40.253906 8.644531 40.234375 8.652344 C 40.074219 8.707031 39.921875 8.726562 39.753906 8.726562 C 39.734375 8.726562 39.710938 8.726562 39.691406 8.726562 C 39.621094 8.726562 39.554688 8.726562 39.484375 8.726562 C 39.4375 8.726562 39.386719 8.726562 39.339844 8.726562 C 39.238281 8.726562 39.140625 8.726562 39.039062 8.726562 C 38.910156 8.726562 38.78125 8.726562 38.652344 8.726562 C 38.554688 8.730469 38.453125 8.730469 38.355469 8.730469 C 38.308594 8.730469 38.257812 8.730469 38.210938 8.730469 C 37.789062 8.730469 37.425781 8.675781 37.105469 8.367188 C 36.867188 8.113281 36.734375 7.78125 36.722656 7.433594 C 36.742188 6.890625 37.046875 6.578125 37.402344 6.214844 C 37.429688 6.191406 37.453125 6.164062 37.480469 6.136719 C 37.546875 6.066406 37.617188 5.996094 37.6875 5.925781 C 37.761719 5.851562 37.835938 5.773438 37.910156 5.699219 C 38.09375 5.515625 38.273438 5.332031 38.453125 5.148438 C 38.539062 5.0625 38.625 4.976562 38.710938 4.890625 C 38.992188 4.601562 39.277344 4.316406 39.558594 4.027344 C 39.632812 3.953125 39.707031 3.878906 39.78125 3.804688 C 39.796875 3.785156 39.816406 3.769531 39.835938 3.75 C 40.132812 3.449219 40.425781 3.148438 40.722656 2.847656 C 41.027344 2.539062 41.332031 2.234375 41.636719 1.925781 C 41.804688 1.75 41.976562 1.578125 42.148438 1.40625 C 42.292969 1.257812 42.4375 1.113281 42.582031 0.964844 C 42.65625 0.890625 42.730469 0.816406 42.804688 0.738281 C 42.871094 0.671875 42.941406 0.601562 43.007812 0.53125 C 43.03125 0.507812 43.058594 0.484375 43.082031 0.457031 C 43.253906 0.285156 43.425781 0.132812 43.660156 0.0585938 C 43.683594 0.0546875 43.703125 0.046875 43.722656 0.0390625 C 44.089844 -0.0585938 44.476562 -0.00390625 44.796875 0.199219 Z M 44.796875 0.199219 "/>
<path style=" stroke:none;fill-rule:nonzero;fill:rgb(15.294118%,20.392157%,54.509804%);fill-opacity:1;" d="M 22.179688 33.035156 C 22.535156 33.03125 22.890625 33.03125 23.246094 33.03125 C 23.410156 33.03125 23.574219 33.03125 23.738281 33.027344 C 23.882812 33.027344 24.027344 33.027344 24.171875 33.027344 C 24.246094 33.027344 24.324219 33.027344 24.398438 33.027344 C 25.265625 33.019531 26.058594 33.171875 26.707031 33.789062 C 27.214844 34.316406 27.335938 35.039062 27.332031 35.75 C 27.332031 35.792969 27.332031 35.839844 27.332031 35.882812 C 27.332031 36.003906 27.332031 36.125 27.332031 36.246094 C 27.332031 36.375 27.332031 36.5 27.332031 36.625 C 27.332031 36.867188 27.332031 37.105469 27.332031 37.34375 C 27.332031 37.617188 27.332031 37.890625 27.332031 38.164062 C 27.332031 38.722656 27.328125 39.285156 27.328125 39.84375 C 26.875 39.847656 26.425781 39.847656 25.972656 39.847656 C 25.761719 39.847656 25.550781 39.847656 25.34375 39.851562 C 25.160156 39.851562 24.976562 39.851562 24.792969 39.851562 C 24.695312 39.851562 24.597656 39.851562 24.503906 39.851562 C 23.667969 39.855469 22.804688 39.796875 22.15625 39.203125 C 22.136719 39.183594 22.136719 39.183594 22.113281 39.164062 C 21.917969 38.984375 21.777344 38.71875 21.695312 38.46875 C 21.683594 38.433594 21.683594 38.433594 21.671875 38.394531 C 21.605469 38.175781 21.601562 37.957031 21.597656 37.734375 C 21.597656 37.71875 21.597656 37.703125 21.597656 37.6875 C 21.59375 37.171875 21.753906 36.707031 22.101562 36.328125 C 22.421875 36.003906 22.855469 35.808594 23.285156 35.703125 C 23.3125 35.695312 23.3125 35.695312 23.339844 35.6875 C 23.621094 35.625 23.898438 35.597656 24.1875 35.601562 C 24.203125 35.601562 24.214844 35.601562 24.234375 35.601562 C 24.660156 35.601562 25.1875 35.632812 25.574219 35.828125 C 25.574219 36.261719 25.574219 36.691406 25.574219 37.136719 C 25.476562 37.082031 25.476562 37.082031 25.378906 37.027344 C 24.84375 36.730469 24.238281 36.65625 23.648438 36.804688 C 23.386719 36.882812 23.152344 37.003906 23.011719 37.25 C 22.886719 37.488281 22.863281 37.734375 22.9375 37.996094 C 23.007812 38.203125 23.113281 38.335938 23.304688 38.441406 C 23.714844 38.640625 24.160156 38.628906 24.601562 38.632812 C 24.644531 38.632812 24.6875 38.632812 24.730469 38.632812 C 24.84375 38.632812 24.953125 38.636719 25.066406 38.636719 C 25.179688 38.636719 25.292969 38.640625 25.410156 38.640625 C 25.632812 38.640625 25.855469 38.644531 26.078125 38.648438 C 26.078125 38.265625 26.074219 37.886719 26.074219 37.507812 C 26.070312 37.332031 26.070312 37.15625 26.070312 36.980469 C 26.070312 36.828125 26.070312 36.671875 26.066406 36.519531 C 26.066406 36.4375 26.066406 36.355469 26.066406 36.273438 C 26.066406 36.183594 26.066406 36.09375 26.0625 36.003906 C 26.0625 35.976562 26.0625 35.949219 26.0625 35.921875 C 26.0625 35.671875 26.035156 35.421875 25.953125 35.183594 C 25.949219 35.164062 25.941406 35.148438 25.9375 35.128906 C 25.820312 34.796875 25.605469 34.566406 25.289062 34.410156 C 24.890625 34.238281 24.472656 34.246094 24.046875 34.246094 C 23.992188 34.246094 23.9375 34.242188 23.882812 34.242188 C 23.742188 34.242188 23.601562 34.242188 23.460938 34.242188 C 23.289062 34.238281 23.121094 34.238281 22.949219 34.238281 C 22.691406 34.234375 22.4375 34.234375 22.179688 34.230469 C 22.179688 33.835938 22.179688 33.441406 22.179688 33.035156 Z M 22.179688 33.035156 "/>
<path style=" stroke:none;fill-rule:nonzero;fill:rgb(15.294118%,20.392157%,54.509804%);fill-opacity:1;" d="M 43.152344 33.820312 C 43.820312 34.441406 44.203125 35.316406 44.25 36.230469 C 44.28125 37.101562 44.066406 38.011719 43.5 38.691406 C 43.480469 38.71875 43.460938 38.742188 43.441406 38.769531 C 42.867188 39.46875 42.054688 39.882812 41.167969 39.988281 C 40.203125 40.074219 39.300781 39.800781 38.558594 39.167969 C 37.878906 38.582031 37.460938 37.742188 37.371094 36.839844 C 37.300781 35.824219 37.523438 34.867188 38.183594 34.085938 C 38.230469 34.027344 38.28125 33.976562 38.328125 33.921875 C 38.347656 33.902344 38.367188 33.882812 38.386719 33.859375 C 38.910156 33.3125 39.585938 33.003906 40.324219 32.902344 C 40.34375 32.898438 40.363281 32.894531 40.382812 32.890625 C 41.414062 32.769531 42.390625 33.121094 43.152344 33.820312 Z M 39.203125 34.769531 C 38.761719 35.277344 38.597656 35.964844 38.640625 36.628906 C 38.675781 37.152344 38.824219 37.640625 39.164062 38.046875 C 39.183594 38.078125 39.183594 38.078125 39.207031 38.105469 C 39.535156 38.5 40.035156 38.726562 40.539062 38.777344 C 41.101562 38.816406 41.710938 38.726562 42.152344 38.34375 C 42.171875 38.324219 42.191406 38.308594 42.207031 38.292969 C 42.242188 38.261719 42.242188 38.261719 42.273438 38.230469 C 42.691406 37.839844 42.925781 37.273438 42.957031 36.703125 C 42.960938 36.617188 42.960938 36.53125 42.960938 36.445312 C 42.960938 36.429688 42.960938 36.414062 42.960938 36.398438 C 42.957031 35.820312 42.8125 35.289062 42.449219 34.832031 C 42.433594 34.8125 42.417969 34.792969 42.40625 34.773438 C 42.074219 34.378906 41.574219 34.140625 41.070312 34.097656 C 40.34375 34.0625 39.71875 34.21875 39.203125 34.769531 Z M 39.203125 34.769531 "/>
<path style=" stroke:none;fill-rule:nonzero;fill:rgb(15.294118%,20.392157%,54.509804%);fill-opacity:1;" d="M 12.648438 33.820312 C 13.316406 34.445312 13.695312 35.3125 13.746094 36.230469 C 13.777344 37.101562 13.558594 38.011719 12.996094 38.691406 C 12.976562 38.71875 12.953125 38.742188 12.933594 38.769531 C 12.363281 39.46875 11.550781 39.882812 10.664062 39.988281 C 9.71875 40.070312 8.820312 39.8125 8.085938 39.199219 C 7.386719 38.605469 6.960938 37.761719 6.863281 36.84375 C 6.789062 35.828125 7.019531 34.867188 7.675781 34.085938 C 7.722656 34.027344 7.773438 33.976562 7.824219 33.921875 C 7.84375 33.902344 7.859375 33.882812 7.878906 33.859375 C 8.402344 33.3125 9.078125 33.003906 9.816406 32.902344 C 9.839844 32.898438 9.859375 32.894531 9.878906 32.890625 C 10.90625 32.769531 11.886719 33.121094 12.648438 33.820312 Z M 8.695312 34.769531 C 8.257812 35.277344 8.09375 35.964844 8.132812 36.628906 C 8.171875 37.152344 8.320312 37.640625 8.65625 38.046875 C 8.679688 38.078125 8.679688 38.078125 8.703125 38.105469 C 9.03125 38.5 9.527344 38.726562 10.03125 38.777344 C 10.597656 38.816406 11.203125 38.726562 11.648438 38.34375 C 11.667969 38.324219 11.683594 38.308594 11.703125 38.292969 C 11.734375 38.261719 11.734375 38.261719 11.769531 38.230469 C 11.929688 38.078125 12.050781 37.910156 12.164062 37.714844 C 12.175781 37.691406 12.1875 37.671875 12.199219 37.648438 C 12.265625 37.523438 12.3125 37.398438 12.355469 37.261719 C 12.359375 37.246094 12.363281 37.234375 12.367188 37.21875 C 12.441406 36.960938 12.457031 36.703125 12.457031 36.4375 C 12.457031 36.421875 12.457031 36.40625 12.457031 36.390625 C 12.457031 36.128906 12.433594 35.882812 12.359375 35.628906 C 12.355469 35.613281 12.351562 35.597656 12.347656 35.582031 C 12.179688 35.042969 11.820312 34.582031 11.328125 34.316406 C 10.457031 33.878906 9.363281 34.058594 8.695312 34.769531 Z M 8.695312 34.769531 "/>
<path style=" stroke:none;fill-rule:nonzero;fill:rgb(15.294118%,20.392157%,54.509804%);fill-opacity:1;" d="M 45.757812 33.035156 C 50.027344 33.035156 50.027344 33.035156 50.808594 33.789062 C 51.4375 34.457031 51.359375 35.488281 51.355469 36.34375 C 51.355469 36.46875 51.355469 36.589844 51.355469 36.714844 C 51.355469 36.949219 51.351562 37.179688 51.351562 37.414062 C 51.351562 37.679688 51.351562 37.945312 51.351562 38.210938 C 51.351562 38.753906 51.347656 39.300781 51.347656 39.84375 C 50.933594 39.84375 50.523438 39.84375 50.097656 39.84375 C 50.097656 39.652344 50.097656 39.652344 50.097656 39.457031 C 50.097656 39.039062 50.09375 38.617188 50.09375 38.195312 C 50.09375 37.941406 50.089844 37.683594 50.089844 37.429688 C 50.089844 37.207031 50.089844 36.984375 50.089844 36.761719 C 50.089844 36.644531 50.085938 36.527344 50.085938 36.410156 C 50.085938 36.296875 50.085938 36.1875 50.085938 36.074219 C 50.085938 36.035156 50.085938 35.996094 50.085938 35.953125 C 50.085938 35.503906 50.027344 34.996094 49.714844 34.648438 C 49.03125 34.003906 47.75 34.242188 47.007812 34.230469 C 47.007812 36.085938 47.007812 37.9375 47.007812 39.84375 C 46.597656 39.84375 46.183594 39.84375 45.757812 39.84375 C 45.757812 37.597656 45.757812 35.347656 45.757812 33.035156 Z M 45.757812 33.035156 "/>
<path style=" stroke:none;fill-rule:nonzero;fill:rgb(15.294118%,20.392157%,54.509804%);fill-opacity:1;" d="M 0.460938 29.90625 C 0.902344 29.90625 1.34375 29.90625 1.796875 29.90625 C 1.796875 30.113281 1.796875 30.320312 1.796875 30.535156 C 1.800781 31.199219 1.800781 31.867188 1.804688 32.53125 C 1.804688 32.632812 1.804688 32.738281 1.804688 32.839844 C 1.804688 32.863281 1.804688 32.882812 1.804688 32.902344 C 1.804688 33.238281 1.804688 33.570312 1.804688 33.902344 C 1.808594 34.242188 1.808594 34.585938 1.808594 34.929688 C 1.808594 35.136719 1.808594 35.347656 1.808594 35.558594 C 1.8125 35.703125 1.8125 35.847656 1.8125 35.996094 C 1.8125 36.078125 1.8125 36.160156 1.8125 36.246094 C 1.808594 37.289062 1.808594 37.289062 2.296875 38.179688 C 2.332031 38.210938 2.371094 38.242188 2.410156 38.269531 C 2.425781 38.28125 2.441406 38.292969 2.457031 38.304688 C 2.773438 38.511719 3.148438 38.5625 3.519531 38.566406 C 3.546875 38.566406 3.570312 38.566406 3.597656 38.566406 C 3.683594 38.566406 3.765625 38.566406 3.851562 38.566406 C 3.910156 38.566406 3.96875 38.566406 4.027344 38.570312 C 4.167969 38.570312 4.304688 38.570312 4.445312 38.570312 C 4.617188 38.570312 4.792969 38.574219 4.964844 38.574219 C 5.277344 38.578125 5.585938 38.578125 5.894531 38.582031 C 5.894531 38.996094 5.894531 39.414062 5.894531 39.84375 C 5.191406 39.847656 5.191406 39.847656 4.894531 39.847656 C 4.691406 39.847656 4.484375 39.847656 4.28125 39.847656 C 4.132812 39.847656 3.984375 39.847656 3.832031 39.847656 C 3.753906 39.847656 3.675781 39.847656 3.597656 39.847656 C 3.179688 39.851562 2.769531 39.847656 2.363281 39.738281 C 2.332031 39.730469 2.332031 39.730469 2.296875 39.722656 C 1.644531 39.546875 1.160156 39.21875 0.8125 38.621094 C 0.496094 38.058594 0.457031 37.308594 0.457031 36.675781 C 0.457031 36.648438 0.457031 36.617188 0.457031 36.589844 C 0.457031 36.507812 0.457031 36.429688 0.457031 36.347656 C 0.457031 36.261719 0.457031 36.175781 0.457031 36.089844 C 0.457031 35.9375 0.457031 35.789062 0.457031 35.640625 C 0.457031 35.421875 0.457031 35.207031 0.457031 34.988281 C 0.457031 34.636719 0.457031 34.285156 0.457031 33.9375 C 0.457031 33.59375 0.457031 33.253906 0.460938 32.914062 C 0.460938 32.890625 0.460938 32.871094 0.460938 32.847656 C 0.460938 32.742188 0.460938 32.636719 0.460938 32.53125 C 0.460938 31.65625 0.460938 30.78125 0.460938 29.90625 Z M 0.460938 29.90625 "/>
<path style=" stroke:none;fill-rule:nonzero;fill:rgb(15.294118%,20.392157%,54.509804%);fill-opacity:1;" d="M 20.601562 33.632812 C 20.613281 33.65625 20.628906 33.675781 20.644531 33.699219 C 20.628906 33.714844 20.613281 33.730469 20.597656 33.746094 C 20.574219 33.769531 20.554688 33.789062 20.535156 33.808594 C 20.523438 33.820312 20.511719 33.832031 20.503906 33.839844 C 20.441406 33.902344 20.386719 33.960938 20.332031 34.027344 C 20.238281 34.136719 20.136719 34.242188 20.039062 34.34375 C 20.019531 34.363281 20 34.382812 19.980469 34.402344 C 19.964844 34.421875 19.945312 34.441406 19.925781 34.457031 C 19.910156 34.476562 19.894531 34.492188 19.878906 34.507812 C 19.832031 34.542969 19.832031 34.542969 19.789062 34.539062 C 19.722656 34.511719 19.664062 34.472656 19.601562 34.4375 C 19.085938 34.132812 18.464844 34.03125 17.875 34.164062 C 17.335938 34.316406 16.925781 34.617188 16.644531 35.117188 C 16.296875 35.761719 16.257812 36.578125 16.449219 37.277344 C 16.535156 37.5625 16.671875 37.835938 16.851562 38.070312 C 16.867188 38.085938 16.878906 38.101562 16.890625 38.121094 C 17.195312 38.496094 17.675781 38.699219 18.144531 38.753906 C 18.667969 38.800781 19.195312 38.71875 19.640625 38.421875 C 19.714844 38.375 19.742188 38.359375 19.832031 38.359375 C 19.875 38.390625 19.875 38.390625 19.917969 38.433594 C 19.933594 38.449219 19.949219 38.464844 19.96875 38.484375 C 19.984375 38.5 20 38.519531 20.019531 38.539062 C 20.039062 38.554688 20.054688 38.574219 20.074219 38.59375 C 20.128906 38.652344 20.1875 38.710938 20.246094 38.769531 C 20.28125 38.808594 20.320312 38.847656 20.359375 38.886719 C 20.457031 38.984375 20.550781 39.082031 20.644531 39.179688 C 20.121094 39.71875 19.296875 39.980469 18.5625 40 C 18.539062 40 18.515625 40 18.492188 40.003906 C 17.5625 40.023438 16.699219 39.742188 16.019531 39.089844 C 16 39.070312 15.980469 39.054688 15.960938 39.035156 C 15.289062 38.382812 15 37.453125 14.964844 36.527344 C 14.953125 35.863281 15.09375 35.238281 15.40625 34.652344 C 15.417969 34.628906 15.429688 34.605469 15.441406 34.582031 C 15.632812 34.234375 15.910156 33.902344 16.21875 33.65625 C 16.238281 33.636719 16.257812 33.621094 16.277344 33.601562 C 16.457031 33.457031 16.648438 33.339844 16.851562 33.234375 C 16.875 33.222656 16.898438 33.207031 16.925781 33.195312 C 17.242188 33.039062 17.578125 32.949219 17.925781 32.902344 C 17.945312 32.898438 17.964844 32.894531 17.988281 32.890625 C 18.914062 32.78125 19.871094 33.039062 20.601562 33.632812 Z M 20.601562 33.632812 "/>
<path style=" stroke:none;fill-rule:nonzero;fill:rgb(15.294118%,20.392157%,54.509804%);fill-opacity:1;" d="M 30.679688 31.679688 C 30.679688 32.128906 30.679688 32.574219 30.679688 33.035156 C 31.304688 33.035156 31.925781 33.035156 32.566406 33.035156 C 32.566406 33.429688 32.566406 33.824219 32.566406 34.230469 C 31.945312 34.230469 31.324219 34.230469 30.679688 34.230469 C 30.683594 34.785156 30.683594 34.785156 30.6875 35.34375 C 30.6875 35.570312 30.6875 35.796875 30.6875 36.023438 C 30.691406 36.1875 30.691406 36.351562 30.691406 36.515625 C 30.691406 36.605469 30.691406 36.691406 30.691406 36.777344 C 30.691406 36.863281 30.691406 36.945312 30.695312 37.027344 C 30.695312 37.070312 30.695312 37.113281 30.695312 37.160156 C 30.695312 37.429688 30.722656 37.710938 30.855469 37.949219 C 30.859375 37.964844 30.867188 37.980469 30.875 37.992188 C 31.03125 38.292969 31.277344 38.40625 31.582031 38.507812 C 31.816406 38.578125 32.039062 38.605469 32.28125 38.617188 C 32.378906 38.621094 32.46875 38.632812 32.566406 38.648438 C 32.566406 39.042969 32.566406 39.4375 32.566406 39.84375 C 31.953125 39.84375 31.953125 39.84375 31.761719 39.816406 C 31.742188 39.816406 31.71875 39.8125 31.695312 39.808594 C 31 39.710938 30.292969 39.492188 29.847656 38.910156 C 29.382812 38.246094 29.382812 37.445312 29.382812 36.660156 C 29.382812 36.574219 29.382812 36.488281 29.382812 36.402344 C 29.382812 36.242188 29.386719 36.082031 29.386719 35.917969 C 29.386719 35.734375 29.386719 35.550781 29.386719 35.367188 C 29.386719 34.988281 29.386719 34.609375 29.386719 34.230469 C 28.984375 34.230469 28.578125 34.230469 28.160156 34.230469 C 28.203125 34.148438 28.238281 34.105469 28.300781 34.039062 C 28.316406 34.023438 28.316406 34.023438 28.332031 34.007812 C 28.367188 33.972656 28.398438 33.941406 28.433594 33.90625 C 28.457031 33.882812 28.480469 33.859375 28.503906 33.835938 C 28.570312 33.769531 28.632812 33.703125 28.699219 33.636719 C 28.765625 33.566406 28.835938 33.5 28.902344 33.429688 C 29.015625 33.316406 29.132812 33.199219 29.246094 33.085938 C 29.378906 32.949219 29.507812 32.816406 29.640625 32.683594 C 29.753906 32.570312 29.867188 32.453125 29.980469 32.339844 C 30.046875 32.269531 30.117188 32.203125 30.183594 32.132812 C 30.246094 32.070312 30.3125 32.003906 30.375 31.941406 C 30.398438 31.917969 30.421875 31.894531 30.445312 31.871094 C 30.476562 31.835938 30.507812 31.804688 30.539062 31.773438 C 30.566406 31.746094 30.566406 31.746094 30.59375 31.71875 C 30.636719 31.679688 30.636719 31.679688 30.679688 31.679688 Z M 30.679688 31.679688 "/>
<path style=" stroke:none;fill-rule:nonzero;fill:rgb(15.294118%,20.392157%,54.509804%);fill-opacity:1;" d="M 33.859375 33.035156 C 34.472656 33.035156 35.089844 33.035156 35.722656 33.035156 C 35.722656 35.28125 35.722656 37.527344 35.722656 39.84375 C 35.308594 39.84375 34.898438 39.84375 34.472656 39.84375 C 34.472656 37.992188 34.472656 36.140625 34.472656 34.230469 C 34.089844 34.230469 33.707031 34.230469 33.3125 34.230469 C 33.4375 33.925781 33.4375 33.925781 33.503906 33.785156 C 33.511719 33.769531 33.519531 33.753906 33.527344 33.738281 C 33.550781 33.691406 33.574219 33.644531 33.597656 33.59375 C 33.621094 33.546875 33.644531 33.5 33.667969 33.449219 C 33.683594 33.421875 33.695312 33.390625 33.710938 33.359375 C 33.761719 33.253906 33.8125 33.144531 33.859375 33.035156 Z M 33.859375 33.035156 "/>
<path style=" stroke:none;fill-rule:nonzero;fill:rgb(15.294118%,20.392157%,54.509804%);fill-opacity:1;" d="M 35.480469 30.484375 C 35.625 30.621094 35.714844 30.789062 35.726562 30.992188 C 35.734375 31.257812 35.714844 31.433594 35.542969 31.644531 C 35.40625 31.789062 35.257812 31.851562 35.058594 31.863281 C 34.820312 31.867188 34.621094 31.839844 34.441406 31.671875 C 34.277344 31.5 34.214844 31.289062 34.21875 31.054688 C 34.230469 30.84375 34.304688 30.65625 34.449219 30.503906 C 34.734375 30.261719 35.1875 30.246094 35.480469 30.484375 Z M 35.480469 30.484375 "/>
<path style=" stroke:none;fill-rule:nonzero;fill:rgb(100%,87.058824%,0%);fill-opacity:1;" d="M 44.226562 6.855469 C 44.273438 6.847656 44.273438 6.847656 44.328125 6.847656 C 44.347656 6.847656 44.371094 6.847656 44.390625 6.847656 C 44.410156 6.847656 44.433594 6.847656 44.457031 6.847656 C 44.476562 6.847656 44.496094 6.847656 44.519531 6.847656 C 44.679688 6.847656 44.679688 6.847656 44.730469 6.898438 C 44.734375 6.945312 44.734375 6.945312 44.734375 7.003906 C 44.734375 7.035156 44.734375 7.035156 44.734375 7.066406 C 44.734375 7.089844 44.734375 7.109375 44.734375 7.132812 C 44.734375 7.152344 44.734375 7.175781 44.734375 7.199219 C 44.734375 7.21875 44.734375 7.238281 44.734375 7.261719 C 44.734375 7.28125 44.734375 7.296875 44.734375 7.320312 C 44.730469 7.367188 44.730469 7.367188 44.683594 7.410156 C 44.640625 7.414062 44.640625 7.414062 44.582031 7.414062 C 44.5625 7.414062 44.542969 7.414062 44.519531 7.414062 C 44.5 7.414062 44.476562 7.414062 44.457031 7.414062 C 44.433594 7.414062 44.414062 7.414062 44.390625 7.414062 C 44.371094 7.414062 44.351562 7.414062 44.328125 7.414062 C 44.308594 7.414062 44.292969 7.414062 44.273438 7.414062 C 44.226562 7.410156 44.226562 7.410156 44.179688 7.367188 C 44.175781 7.320312 44.175781 7.320312 44.175781 7.265625 C 44.175781 7.238281 44.175781 7.238281 44.175781 7.207031 C 44.175781 7.1875 44.175781 7.167969 44.175781 7.144531 C 44.175781 7.125 44.175781 7.105469 44.175781 7.082031 C 44.175781 7.0625 44.175781 7.042969 44.175781 7.023438 C 44.175781 7.003906 44.175781 6.988281 44.175781 6.96875 C 44.179688 6.921875 44.179688 6.921875 44.226562 6.855469 Z M 44.226562 6.855469 "/>
<path style=" stroke:none;fill-rule:nonzero;fill:rgb(100%,87.058824%,0%);fill-opacity:1;" d="M 43.644531 6.847656 C 43.667969 6.847656 43.6875 6.847656 43.710938 6.847656 C 43.730469 6.847656 43.753906 6.847656 43.773438 6.847656 C 43.796875 6.847656 43.816406 6.847656 43.835938 6.847656 C 43.855469 6.847656 43.875 6.847656 43.894531 6.847656 C 43.917969 6.851562 43.917969 6.851562 43.941406 6.855469 C 43.984375 6.925781 43.988281 6.941406 43.988281 7.019531 C 43.988281 7.046875 43.988281 7.046875 43.988281 7.074219 C 43.988281 7.09375 43.988281 7.113281 43.988281 7.132812 C 43.988281 7.152344 43.988281 7.171875 43.988281 7.191406 C 43.988281 7.210938 43.988281 7.226562 43.988281 7.246094 C 43.988281 7.265625 43.988281 7.28125 43.988281 7.296875 C 43.984375 7.34375 43.984375 7.34375 43.941406 7.410156 C 43.894531 7.417969 43.894531 7.417969 43.835938 7.417969 C 43.816406 7.417969 43.796875 7.417969 43.773438 7.417969 C 43.753906 7.417969 43.730469 7.417969 43.710938 7.417969 C 43.6875 7.417969 43.667969 7.417969 43.644531 7.417969 C 43.484375 7.414062 43.484375 7.414062 43.4375 7.367188 C 43.429688 7.320312 43.429688 7.320312 43.429688 7.261719 C 43.429688 7.238281 43.429688 7.21875 43.429688 7.199219 C 43.429688 7.175781 43.429688 7.15625 43.429688 7.132812 C 43.429688 7.109375 43.429688 7.089844 43.429688 7.066406 C 43.429688 7.046875 43.429688 7.027344 43.429688 7.003906 C 43.429688 6.984375 43.429688 6.964844 43.429688 6.945312 C 43.445312 6.824219 43.550781 6.847656 43.644531 6.847656 Z M 43.644531 6.847656 "/>
<path style=" stroke:none;fill-rule:nonzero;fill:rgb(100%,87.058824%,0%);fill-opacity:1;" d="M 44.203125 7.632812 C 44.285156 7.632812 44.371094 7.628906 44.453125 7.628906 C 44.476562 7.628906 44.5 7.628906 44.527344 7.628906 C 44.550781 7.628906 44.570312 7.628906 44.59375 7.628906 C 44.617188 7.628906 44.636719 7.628906 44.660156 7.628906 C 44.707031 7.632812 44.707031 7.632812 44.730469 7.652344 C 44.730469 7.6875 44.730469 7.722656 44.730469 7.757812 C 44.730469 7.777344 44.730469 7.796875 44.730469 7.820312 C 44.730469 7.839844 44.730469 7.863281 44.730469 7.886719 C 44.730469 7.917969 44.730469 7.917969 44.730469 7.953125 C 44.730469 7.972656 44.730469 7.992188 44.730469 8.015625 C 44.730469 8.035156 44.730469 8.050781 44.730469 8.074219 C 44.730469 8.121094 44.730469 8.121094 44.707031 8.164062 C 44.628906 8.164062 44.546875 8.167969 44.46875 8.167969 C 44.445312 8.167969 44.421875 8.167969 44.402344 8.167969 C 44.378906 8.167969 44.355469 8.167969 44.335938 8.167969 C 44.304688 8.167969 44.304688 8.167969 44.273438 8.167969 C 44.226562 8.164062 44.226562 8.164062 44.179688 8.121094 C 44.175781 8.074219 44.175781 8.074219 44.175781 8.019531 C 44.175781 8 44.175781 7.980469 44.175781 7.960938 C 44.175781 7.941406 44.175781 7.917969 44.175781 7.898438 C 44.175781 7.878906 44.175781 7.855469 44.175781 7.835938 C 44.179688 7.683594 44.179688 7.683594 44.203125 7.632812 Z M 44.203125 7.632812 "/>
<path style=" stroke:none;fill-rule:nonzero;fill:rgb(100%,87.058824%,0%);fill-opacity:1;" d="M 43.507812 7.628906 C 43.527344 7.628906 43.550781 7.628906 43.570312 7.628906 C 43.605469 7.628906 43.605469 7.628906 43.640625 7.628906 C 43.664062 7.628906 43.6875 7.628906 43.710938 7.628906 C 43.746094 7.628906 43.746094 7.628906 43.785156 7.628906 C 43.84375 7.632812 43.902344 7.632812 43.960938 7.632812 C 44.003906 7.710938 43.988281 7.808594 43.988281 7.898438 C 43.988281 7.917969 43.988281 7.9375 43.988281 7.960938 C 43.988281 7.988281 43.988281 7.988281 43.988281 8.019531 C 43.988281 8.039062 43.988281 8.054688 43.988281 8.074219 C 43.984375 8.121094 43.984375 8.121094 43.941406 8.164062 C 43.890625 8.167969 43.890625 8.167969 43.832031 8.167969 C 43.808594 8.167969 43.789062 8.167969 43.765625 8.167969 C 43.730469 8.167969 43.730469 8.167969 43.695312 8.167969 C 43.671875 8.167969 43.652344 8.167969 43.628906 8.167969 C 43.570312 8.164062 43.515625 8.164062 43.457031 8.164062 C 43.429688 8.109375 43.433594 8.074219 43.433594 8.015625 C 43.433594 7.992188 43.433594 7.972656 43.433594 7.953125 C 43.433594 7.929688 43.433594 7.90625 43.433594 7.886719 C 43.433594 7.863281 43.433594 7.84375 43.433594 7.820312 C 43.433594 7.796875 43.433594 7.777344 43.433594 7.757812 C 43.433594 7.738281 43.433594 7.71875 43.433594 7.699219 C 43.4375 7.636719 43.445312 7.632812 43.507812 7.628906 Z M 43.507812 7.628906 "/>
</g>
</svg>
